<?xml version="1.0" encoding="UTF-8"?>
<svg id="Layer_1" xmlns="http://www.w3.org/2000/svg" version="1.1" viewBox="0 0 272.65 784.76">
  <!-- Generator: Adobe Illustrator 30.3.0, SVG Export Plug-In . SVG Version: 2.1.3 Build 182)  -->
  <path d="M119.11,758.07c-2.06-1.79,2.79-7.45.35-14.36-.78-2.2-2.53-3.94-4.98-3.97l-3.35,4.37-6.17,7.37c-1.01,1.21-3.16-.36-3.68-1.42-.56-1.13-.56-3.38.63-4.03,3.39-.21,5.59-1.51,7.38-4.29,4.3-6.67-.26-9.91-1.16-15.13-1.05-6.14-.07-12.36,1.97-18.13l-8.54.47c-5.67.31-10.01,3.28-11.34,8.78-1.62.64-3.31-.05-4.38-1.26-.96-1.09-1.3-2.89-.87-4.32,4.77,1.11,5.73-4.34,12.44-5.91l-4.85-3.26c-3.95-2.66-5.9,1.1-7.97-.2-1.13-.71-1.36-3.91.17-6.21.46-.7,2.48-1.19,3.25-.52,7.16,6.32,16.32,9.44,25.77,7.91,4.67-.76,8.66-2.91,11.51-6.72,3.36-4.49,5.61-9.74,6.67-15.35,1.36-7.22,3.45-13.71,6.77-20.33,3.75-7.47,6.31-15.99,5.18-24.32-8.66-3.34-10.24-10.42-7.91-19.32,4.47-17.06-3.63-30.8,7.47-35.36-6.81-5.85-5.14-15.8-3.75-24.98.69-4.58.58-8.88-.16-13.42-1.34-8.24-2.9-19.14,3.79-22.44-7-5.37-5.91-15.02-4.51-23.56.88-5.37.92-10.33.01-15.7-1.43-8.42-2.8-19.86,4.8-22.3-11.68-9.22-2.38-22.91-4.9-38.64-1.37-8.59-2.99-19.82,3.54-23.14-7.34-10.06.37-21.75-2.19-36.77-1.23-7.24-2.49-17.2,2.11-21.51-2.32-2.86-3.91-6.32-3.58-10.04l1.2-13.41c.4-4.5.67-8.66-.08-13.13-1.29-7.68-2.87-19.15,3.08-22.6-2.85-2.69-4.62-6.28-3.98-10.29l1.15-7.2c.83-5.2,1.18-10.06,1.23-15.37l.12-11.66c.04-3.61,2.6-5.97,6.05-7.41-.5-10.85-1.56-21.82-4.32-32.31-1.34-5.11-3.46-9.52-6.57-13.55-2.66-3.45-7.26-4.54-10.99-1.99l-10.93,7.47c-2.86,1.96-5.91,3.68-7.93,6.61-4.13,5.98-.24,13.64-4.89,15.77l.81-7.36c.8-7.26,4.25-12.69,9.91-17.13,4.55-3.56,12.13-10.62,10.8-14.79-.37-1.16-2.3-2.39-3.77-2.31-8.21.48-15.97,2.91-22.69,7.4-10.12,6.77-6.09,15.02-11.23,21.88-3.79,5.05-2.96,11.28,1.42,15.97l6.53,6.97c.41.44.73,1.9.65,2.49s-.86,1.39-1.58,1.89l-2.38-4.74c-1.03-2.05-2.73-4.3-4.49-5.89-4.38-3.94-5.07-9.37-2.47-14.76l3.73-7.72c.48-.99-.2-3.08-.89-3.77-4.23-4.28-15.32,9.38-17.96,16.67-2.78,7.67,5.54,15.49,3.77,25.38-.93,5.22,1.8,6.75.83,8.78-.24.5-1.06.77-2.07.83-2.05-6.59,1.71-13.69-2.95-17.74l-2.18,5.7c-2.56,6.7,2.54,13.1-2.25,13.96-.05-3.36-.72-6.77-.41-9.99.64-6.76,4.75-13.86,1.44-22.19-2.81,3.84-5.85,6.82-9.34,9.5-6.52,5.01-2.12,11.12-6.64,11.97.02-9.12,2.71-10.82,8.07-15.51,4.49-3.92,5.58-9.96,10.42-16.05l9.36-11.81c-2.55-.43-4.56-.05-6.78.84-8.6,3.47-15.76,9.14-21.87,16.16-4.15,4.76-12.82,14.87-16.7,12.75-.21-.12-.77-.87-.66-1.07.89-1.68,6.52-.86,11.06-6.47l8.07-9.98c1.31-1.62,3.27-2.77,4.02-5.14-4.75.74-8.97,2.48-13.08.49-3.17-1.53-6.22-3.73-9.66-4.32-5.91-1-11.26,1.11-13.85,6.48-.24.5-1.29,1.08-1.78.96-.59-.15-1.47-1.43-1.05-1.85,7.55-6.67,16.86-10.74,25.29-4.66,3.18,2.29,6.25,2.46,9.98,1.46,14.73-3.97,28.65-9.65,41.45-18.03,4.1-2.69,9.42-7.96,7.86-10.71-1.47-2.58-8.22-2-12.64-.19l-9.27,3.79c-6.42,2.62-11.39-.81-15.74,4.26-2.4,2.79-5.27,4.12-8.77,5.31l-6.67,3.48c-1.98-4.86,7.99-4.33,12.75-8.95l4.52-4.39-2.85-1.19c-3.78-1.58-7.36-1.25-10.88.87-5.05,3.04-10.31,5.84-16.16,7.16-7.79,1.75-16.9-3.49-23.24.91l-3.56,2.47-1.06-1.2c6.48-6.32,15.37-4.83,24.07-4.1,4.81.4,9.19-2.11,13.06-4.57l9.23-5.89c-2.27-1.21-5.22-.68-7.72.29l-8.95,3.49c-10.06,3.93-16-2.52-26.12-4.64-4.19-.88-6.16,2.12-8.38,1.34-.46-.16.11-2.1.59-2.16l3.77-.53c4.61-.65,8.99-.15,13.11,1.93,8.48,4.28,17.19,2.3,25.17-2.22-4.13-1.11-7.42-2.25-10.49-4.52-4.04-2.99-8.51-4.65-13.47-5.66-7.81-1.59-10.85-6.5-8.36-6.34s2.85,4.42,8.78,5.17c13.97,1.78,18.57,9.65,30.04,9.67l-1.97-7.24c-.9-3.33-2.79-5.92-5.76-7.74l.46-1.31c.16-.45,7.4,3.69,8.82,12.31.66,4.02,3.27,6.38,6.76,7.87,2.99,1.28,5.95,3.37,9.41,3.26,4.45-.14,8.64-1.76,12.65-3.52,5.16-2.25,10.19-3.94,15.67-5.22,3.67-.85,7.04-2.33,9.7-4.91,1.93-1.86,2.5-5.59-.14-6.94-7.17-3.68-13.25-.21-20.91-3.67-6.96-3.15-9.29.08-14.88-1.13l.36-3.17,6.07.88c3.11.45,5.96.24,8.87,1.65,2.74,1.33,6,1.93,9.07,1.67l10-.86c4.48-.38,9.66-3.17,10.17-6.81.78-5.48-6.09-10.01-12.12-12.27-8.83-3.3-17.74-2.81-26.45.56-4.69,1.82-9.05,3.62-13.43,6.12-3.02,1.72-6.73,2.16-10.12,1.36l-6.96-1.63c-3.02-.71-5.83-.59-8.76-.01v-3.09c1.73-.1,3.3-.06,4.85.27l11.92,2.51c3.16.67,6.12-.64,8.89-1.97l12.18-5.83c5.28-2.18,10.54-3.53,16.26-3.65l1.23-.7c.23-.13.21-.66.15-1.15-13.36-6.16-27.1-10.24-41.76-12.06-2.7-.03-4.2,2.9-5.96,2.3-.67-.23-1.66-1.31-1.85-1.96,2.43-3.36,11.81-2.64,16.82-1.41l27.7,6.81c5.35,1.32,14.7,3.35,15.84.82,1.05-2.33-5.46-7.11-9.45-9.38-4.62-2.63-9.38-4.69-14.36-6.57-12.41-4.69-14.8-13.47-23.76-18.78l-3.05-1.4c-.37-.17-.78-1.24-.72-1.65.36-2.18,5.15-.24,6.54,1.24l12.41,13.19c1.86,1.98,4.25,3.63,6.9,4.57l10.6,3.77c-5.27-6.73-11.9-8.18-14.7-18.08-2.01-7.1-5.54-13.19-9.87-19.22l-7.45-10.37c-.31-.43-.73-1.97-.29-2.07l1.93-.46c.44-.11.46,1.52.72,1.9l9.51,14.02c3.32,4.89,5.75,9.8,7.58,15.37,1.12,3.42,3.02,6.54,5.6,9.03,3.91,3.78,8.03,7.12,12.9,10.16-1.93-5.19-3.47-9.35-3.38-14.45.14-7.96-1.5-15.35-4.32-22.72-.96-2.5-1.69-5.22-1.54-7.92,2.61-1.2,2.19,5.53,5.06,13.16,2.13,5.66,2.98,11.4,2.99,17.44.02,9.43,4.28,17.04,11.54,22.62,8.56,6.59,18.92,9.78,29.7,7.7,3.61-.7,5.73-3.37,6.35-6.94,1.33-7.61-.95-14.82-4.84-21.47l-6.11-10.44c-5.81-9.92-11.56-19.37-23.26-22.55l.28-2.07c.15-1.09,4.94-.99,8.6,3.03l9.73,10.7c2.66,2.92,4.55,5.94,6.65,9.36.37-4.48-.21-8.43-1.72-12.19l-3.72-9.29c-2.11-5.27-3.58-10.15-3.3-15.97s-2.91-8.23-.02-9.43c.62-.26,1.87.95,1.88,1.77l.17,11.27c.15,10.01,8.42,17.1,10.61,34.39.79,6.21,3.91,17.6,7.78,17.4.8-.04,2.19-1.1,2.67-1.94,3.67-6.42.57-15.22,2.52-23.03.94-3.77,1.52-6.83-.42-10.49-1.01-1.91-1.38-4.52-1.17-6.81.56-6.09-1.4-9.53.03-9.86,1.76-.41,2.32,2.54,2.01,6.23-.46,5.34.34,10.05,3.27,14.77l3.7-4.33c1.84-2.16,2.08-5.08,1.66-7.79-.87-5.64-1.25-11.12-.59-16.78.41-3.52,2.23-6.52,3.81-9.57l4.17-8.01c1.8-3.45-.81-7.66-.19-9.66.92-2.98,5.05,5.42-.9,16.69l-3.29,6.23c-2.19,4.14-1.91,8.93-1.12,13.44l2.05,11.71c1.86-2.01,2.51-4.53,2.61-7.14l.39-10.69c.15-4.04,1.84-7.88,4.6-10.76l7.81-8.16c2.33-2.43,3.43-5.6,3.27-8.9l.21-1.8c.05-.45,1.78.29,1.9.72.29,1-.29,2.97-.65,4.17-1.4,4.59-3.44,8.37-7.06,11.49-6.5,5.61-8.7,14.2-7.56,23.2l7.02-5.76c2.12-1.74,3.83-3.36,5.34-5.74,1.2-1.89,2.62-3.51,4.38-3.64.85-.06-2.14,7.7-9.27,12.24-3.64,2.32-5.69,5.61-8.12,9.03-4.79,6.76-14.56,10.57-14.96,19.66l-.48,10.94c-.17,3.96-.22,7.7-.86,11.58-.74,4.49-.75,9.87,1.82,10.49,3.78.91,5.73-7.65,7.38-11.48l6.29-14.59c2.23-5.17,6.65-8.52,11.76-10.65,3.94-1.64,7.67-3.35,10.84-6.18,1.38-1.23,2.83-2.26,4.48-3.14.41,2.66-1.1,4.55-3.08,5.55l-11.92,6.04c-5.81,2.94-12.46,7.07-10.06,13.05,10.93-11.1,33.58-4.09,40.27-16.41.8-.12,2.16.39,2.63,1,.59.77.93,2.26.5,3.25-6.21,2.61-12.95,4.48-19.46,6.26l-15.04,4.11c-4.51,1.23-8.15,4.15-10.27,8.34l-4.55,9.03c-2.39,4.73-3.6,9.91-3.39,15.24.18,4.59,3.56,8.19,8.31,8.1,5.69-.11,11.19-1.36,16.79-2.6,5.91-1.32,11.72-2.93,16.75-6.4,5.68-3.91,6.66-11.45,14.05-15.41,3.23-1.73,5.92-3.94,8.43-6.62,3.19-3.41,1.95-6.11,3.85-6.95.52-.23,2.03.12,2.35.57-.7,6.91-8.79,12.31-14.85,16.29-3.22,2.12-5.12,6-7.45,8.97-1.23,1.57-2.26,2.75-3.11,4.77-.36.86,1.65,2.4,2.61,2.43l8.28.31,12.69,3.26c11.15,1.48,22.31,1.25,33.47-.12l9.11-1.11c1.86-.23,3.63,1.15,4.08,3.26-2.31.36-4.82-.61-7.06-.5-4.23.2-7.8,1.23-12.51,2.47l10.89,4.86c6.77,3.02,7.44,10.35,5.38,9.93-2.42-.49-.95-4.37-5.31-7.54-9.01-5.06-18.74-8.35-29.09-8.9-.47.05-2.13.24-2.13.71,0,.6.22,1.52.49,2.51l17.94,12.98c7.43,5.19,9.28,15.15,7.6,14.5l-1.51-.59c1.67-5.3-1.73-8.14-6.02-10.93l-14.21-9.25-10.95-7.01c-9.68-5.23-21.03-5.59-31.65-3.72-9.71,1.71-22.18,3.92-25.8,12.44-1.78,4.19-.83,8.17,2.64,11.13,3.84,3.28,8.62,5.68,13.95,6.6,13.79,2.39,27.69,3.35,41.72,2.33,6.27-.45,15.46-1.95,16.24,1.26.17.67-.51,1.99-1.32,2.54-2.54-2.47-5.41-3.53-8.97-3.14-6.12.67-12.23,1.59-18.39,1.39-2.58-.08-4.62-.76-7.3.76,2.82,2.13,5.47,3.6,8.58,4.66,4.07,1.39,7.63,3.35,11.2,5.75l9.87,6.62c4.6,3.01,8.57,6.41,11.27,11.41-2.93,3.12-3.53-4.44-9.77-7.93l-9.33-5.21c-.38-.21-1.37-.37-1.74-.26-1.8.54-.15,8.76,2.46,13.08,3.87,6.42,10.86,7.86,12.06,13.38l-.96.86-2.73-4.08-6.9-5.57c-8.62-6.96-3.8-18.44-19.03-25.02-6.71-2.9-13.42-5.28-20.53-7.02s-14.16-1.02-20.27,1.99c-4.08,2.02-5.47,6.25-3.29,10.1,1.77,3.12,4.09,5.83,6.58,8.41,5.36,5.55,12.74,7.22,20.06,4.65,5.76-2.02,11.62-3.01,17.61-1.82,1.25.25,2.28,1.19,2.12,2.42-5.26-2.18-10-1.15-15.15.24l-11.66,3.15c3.41,2.79,7.22,4.18,11.09,5.44,6.16,2.01,12.22,3.37,18.75,3.67,8.09.38,20.27,4.25,14.97,8.4l-2.64-3.92c-1.2-1.78-4.78-2.38-7.02-2.37-7.36.02-14.02-.42-21.64-1.93-.5,6.02,7.45,10.49,13.17,12.61,2.87,1.06,6.16,4.17,7.49,6.5.18.32-.11,2.14-.4,1.99l-1.47-.77-2.4-4.55-11-5.61c-3.64-1.86-6.77-4.53-8.91-7.95-4.13-6.64-9.78-5.64-16.81-10.78-4.38-3.21-9.08-5.85-14.37-7.22-2.94-.76-5.67.5-7.28,2.95-3.07,4.65-5.19,9.89-5.38,15.71l-1.1,33.93c3.41.55,5.92,2.05,7.42,4.86,1.24,2.33,2.51,5.03,2.71,7.75l1.13,15.44c.72,9.86-.05,21.29-8.53,26.38,3.42,2.11,5.49,5.59,5.12,9.4l-1.19,12.21c-1.33,13.59,8.64,28.06-1.98,36.98l-.2.99c4.8,3.8,4.08,11.08,3,17.41-.81,4.76-.47,9.18.32,13.95l2.23,13.6c.94,5.73-1.78,11.14-6.99,14.17,2.39,2.16,4.1,5.03,3.8,8.34l-.86,9.44c-.43,4.74-.36,9.14.41,13.86l2.3,14.2c.07,5.85-2.21,10.82-7.64,13.69-.04.52.52,1.66,1.04,1.96,5.81,3.3,5.44,10.38,4.31,17.23-.79,4.77-.92,9.22-.01,13.94l2,10.38c1.42,7.39.18,14.17-6.43,18.27l-.05.74c3.64,2,6.02,5.32,5.73,9.35l-.65,8.88c-.39,5.28-.45,10.13.39,15.37l2.13,13.21c1.34,8.3-7.3,14.34-7.38,14.22l.62.88c2.28,3.25,3.55,7.27,3.93,11.41.74,7.98,1.07,15.8.69,23.77-.35,7.41-4.18,14.99-11.48,16.72l-1.11,15.88c-.49,7.01,6.29,7.65,8.69,14.86,1.28,3.84,4.42,5.94,8.52,6.27,7.31.59,14.71-2.62,19.74-7.94.18-.78.71-2.49,1.26-2.95,1.66-1.4,3.94.41,4.82,2.34.64,1.38.75,3.58-.88,4-2.33.6-4.32,1.33-6.37,2.35l-7.31,3.63-3.11,1.2c-.25-.35.12.33.4.8l7.35-.23,5.96,1.18c1.13.22,3.29-.17,3.5,1.41.26,1.97-.99,5.15-2.53,6.09-2.26.06-2.08-4.5-6.6-4.92l-14.28-1.31-5.11-1.39c-.38-.1-1.58.62-1.51.99l.35,1.83,3.37,8.64c6.57,16.86,30.76,21,47.65,12.37,15.37-7.85,14.47-23.1,17.59-22.22.93.26,2.41,1.05,2.77,1.68.41.73-.58,2.29-1.25,2.98-1.69,1.73-2.53,3.69-3.82,5.8l-3.1,5.12-.58.63-1.51,2-.44.6-.61.84.79.81,3.73-2.29,8-5.56c7.81-5.26,16.11-8.99,25.14-11.69l2.06.45c1.99.44-.45,7.84-3.5,6.88-2.08-.65-4.02-1.95-6.26-.82l-13.68,6.92c3,.21,5.81.08,8.78.86l6.28,1.65c.74.19,1.47,1.82,1.13,2.38-.93,1.54-3.2,2.36-4.49.96-3.76-4.08-11.2-3.51-15.61-1.27l-11.96,6.06c-8.66,4.39-17.82,6.88-27.5,6.24-1.89,2.57,2.58,5.74,6.26,6.84,5.51,1.64,11.03,2.29,16.87,2.47,5.19.16,9.1-2.7,9.94-1.53s.69,4.17-.02,4.8c-.53.48-2.03.83-2.92.76-8.8-.7-17.21-1.51-25.55-3.87-8.8-2.49-7.85-8.31-14.28-10.78l-8.67-3.32c-3.02-1.16-1.43,10.58,2.48,16.03l11.99,13.05c.91.99,2.02,2.75,3.14,3.31,1.26.62,2.98,1.1,3.3,2.06.35,1.07-.53,3.13-1.87,3.69-.47.2-1.92-.01-2.23-.51-2.48-3.99-5.66-7.94-9.05-11.28l-6.69-6.58c-.18,3.59-.05,7.07-1.55,9.75l-2.05,3.67c-.27.49-.5,1.02-.83,1.1-1.54.36-2.71-1-3.76-2.84-.53-.92.81-2.19,1.86-2.58,5.63-2.1,2.57-9.3.8-14.69-2.42-7.36.51-15.07-5.4-21.28-2.86-3.01-5.27-6.33-6.5-10.43l-6.1-20.38c-1.12-3.74-4.17-6.25-8.21-6.34l-4.38,8.33c-3.64,6.92-4.56,14.25-3.57,22.01s2.28,14.77,4.32,22.12l5.79,20.82c3.24,11.66,10.11,21.49,22.48,23.39l1.31.35c-.42,1.82-.67,2.94-1.33,3.91-.54.79-2.57.65-3.47-.05l-4.51-3.51c-2.23-1.73-5.3-2.68-7.1-4.82l-5.21-6.17-.12,7.55-1.81,17.89c-.51,5.08,3.51,6.39,2.42,8.33-.92,1.65-4.01,2.63-5.72,1.22-.5-.41-.85-1.84-.78-2.43l1.31-10.38c.81-6.43,1.96-12.76,1.34-19.3-.71-7.52-3.03-14.4-4.94-21.68l-5.71-21.8-2.28-15.38-3.93,5.36c-3.2,4.36-6.66,8-11.24,10.7-8.5,5.01-7.04,18.92,1.24,27.39,2.73,2.8,4.21,6.34,4.63,10.18l1.02,9.41c.07.68-.05,1.98-.22,2.51-.27.84-2.93,1.05-4.83-.59ZM151.86,146.66c1.88-3.23,1.45-6.93-.93-9.52-2.8-3.05-7.03-5.03-11.18-4.57-3.85.43-6.38,3.33-7.38,6.33-1.07,3.21-.81,7.92,2.05,9.45l7.54,4.03c4.14.06,7.84-2.19,9.9-5.72Z"/>
</svg>