<?xml version="1.0" encoding="UTF-8"?>
<svg id="Layer_1" xmlns="http://www.w3.org/2000/svg" version="1.1" viewBox="0 0 230.77 784.59">
  <!-- Generator: Adobe Illustrator 30.3.0, SVG Export Plug-In . SVG Version: 2.1.3 Build 182)  -->
  <path d="M131.28,729.42l-2.4-8.27c-2.52-8.7.69-15.23-6.46-22.61-1.47-1.52-3.19-3.48-3.91-5.42l-2.99-8.04-4.61-15.89c-1.11-3.82-4.36-6.85-8.46-6.4l-5.02,10.07c-7.02,14.08-.38,34.56,3.68,49.36l4.55,16.61c2.82,10.28,11.87,19.56,22.59,20.73.16,1.57-.14,3.28-1.2,4.1-2.31,1.79-5.02-2.39-10.79-5.46-1.76-.93-3.4-2.22-4.65-3.72l-4.65-5.59-.03,5.82-1.86,19.47c-.28,2.88.78,4.78,2.31,7.05,1.05,1.56-1.33,3.5-3.05,3.35-.88-.07-2.03-.27-2.54-.58-.6-.35-.88-1.9-.78-2.67l1.32-10.38c.83-6.55,2.02-13.02,1.26-19.72-.79-6.96-2.84-13.32-4.59-20.06l-6.17-23.74-2.09-14.55-3.88,5.37c-3.23,4.48-6.82,8.13-11.54,10.95-8.2,4.9-6.61,19.07,1.12,26.81,3.99,3.99,5.24,8.66,5.24,14.29,0,2.38,1.19,5.16.67,7.63-.33,1.55-2.79,1.43-3.87.85-4.39-2.36,2.51-8.14-1.16-16.04-.68-1.46-2.53-3.55-4.41-2.85-1.01.41-2.17,2.58-2.92,3.45l-6.98,8.18c-.88,1.03-3.01-.67-3.5-1.69s-.66-3.6.83-3.85c3.1-.5,5.1-1.34,6.92-3.86,4.92-6.78-.14-10.52-.97-16.21-.88-5.99.07-12.13,2.14-17.54l-9.59.55c-9.53.54-9.36,8.9-11.45,9.06-.53.04-1.49-.35-2.1-.73-1.67-1.04-3.18-3.71-1.65-5.19,4.63.8,5.36-4.48,12.18-5.89l-5.44-3.54c-3.41-2.22-5.67,1.32-7.39.16-1.63-1.1-1.49-6.01,1.27-7.17.92-.33,2.72.83,3.63,1.58,7.85,6.51,18.67,8.87,28.32,5.53,8.15-2.83,12.69-13.48,14.23-21.97,1.32-7.26,3.81-13.8,7.06-20.41s4.93-12.93,4.97-20.12l.05-9.36c-5.58-1.47-8.96-5.96-8.81-11.46l1.33-8.53c.64-4.08.95-7.97.96-12.15l.04-11.84c0-2.57,1.48-4.55,3.75-6.27-7.78-5.73-6.48-16.99-4.77-26.83,1.08-6.24,1.12-12.08.2-18.3-1.17-7.94-2.27-20.79,4.23-23.57l.22-.95c-9.42-8.89-1.43-25.44-2.62-37.2l-1.47-14.53c-.36-3.57.08-7.31,1.14-10.57,1.31-4.05,4.92-5.75,9.09-5.08l1.52-4.5c1.53-4.52,3.39-8.93,3.57-13.87.11-3.04-1.18-6.14-2.03-8.97l-2.31-7.8c-11.03-3.57-10.53-13.16-8.9-24.05.7-4.68.77-9.09-.08-13.75-1.31-7.18-2.76-16.97,2.65-20.45-6.67-5.58-5.2-15.01-3.8-23.95.71-4.54.55-8.77-.19-13.25-1.27-7.7-2.84-18.62,3.9-21.5-6.76-5.37-5.98-14.26-4.53-23.14.94-5.73,1.01-10.99,0-16.71-1.39-7.89-2.57-20.03,4.95-21.62-6.36-4.81-6.62-10.66-4.56-18.67,1.45-5.61,1.67-10.93,1.21-16.68l.16-10.37c.05-3.33,2.17-5.48,4.9-7.16l-.44-20.83c-.13-6.38-1.76-12.16-3.94-18.02-4.21-11.3-13.5-19.04-25.66-20.6-10.92-1.4-21.13-3.87-31.65-7.28s-21.35-6.48-32.76-7.8c-2.45-.28-3.87,2.54-5.67,2.43-.62-.04-1.55-1.03-2.01-1.68-1.33-1.85,7.36-4.05,14.86-2.22l29.78,7.25c5.01,1.22,11.96,2.91,15.23,1.26,2.25-1.14-2.69-5.93-6.97-8.62-9.52-6-21.13-8.65-25.46-12.98l-10.8-10.78c-3.87-3.86-7.84-3.23-7.81-5.78,0-.66,1.4-1.3,2.19-1.1,3.47.86,5.45,3.27,7.78,5.75l6.06,6.43c2.99,3.18,5.49,6.19,9.8,7.8l8.53,3.18,1.31.33c.25.06-.02-1.05-.21-1.21l-6.11-5.34c-3.45-3.01-6.02-6.3-7.32-10.71-2.34-7.9-6.46-14.58-11.25-21.31l-6.17-8.68c-.26-.36-.46-1.62-.53-2.05s1.08-.61,1.62-.6.73,1.08,1.16,1.73l7.18,10.86c4.07,6.15,7.89,11.86,10.02,19,2.35,7.87,10.96,13.87,18.57,19.05-2.06-5.01-3.6-9.2-3.55-14.33.07-7.75-1.3-14.93-4.07-22.18l-2.04-7.53c-.08-.31.68-1.37.91-1.58.3-.26.81.69,1.14,1.21l3.77,14.12c1.17,4.39,2.38,8.81,2.32,13.45-.12,8.94,2.89,16.84,8.82,23.44,12.25,13.65,27.89,13.56,35.54,22.9l7.88,12.61c.36.58,2.18,1.69,2.49,1.11,4.68-14.91-.31-34.57-7.84-48.15l-9.8-17.68c-5.73-10.33-12.08-19.94-23.57-23.19l.19-1.86c.11-1.13,4.84-1.33,8.82,3.05l9.53,10.48,5.74,7.69.69,1.1.54-.95c-.27-7.06-2.62-13.41-5.59-19.67-5.35-11.29-2.39-17.16-4.08-21.89-.5-1.41-.83-2.65.26-3.47.22-.17.98-.4,1.21-.3.31.14.99.97,1,1.38l.29,12.42c.21,9.08,8.32,16.27,10.54,33.44,1.16,8.97,5.72,22.03,10.08,16.06s1.03-14.78,2.8-22.77c.94-4.25,1.82-7.58-.51-11.64-.97-1.7-1.15-4.41-.94-6.54.51-5.28-.92-7.4-.41-9.41.1-.37,1.52,0,1.75.34,2.12,3.08-1.54,10.43,3.08,18.98l.54,1.35c.07.17,6.65-4.59,5.8-10.84s-1.44-12.08-.68-18.16c.45-3.55,1.96-6.61,3.88-9.52,8.12-12.33,2.78-15.24,3.94-17.66.11-.22.49-.57.66-.39l1.08,1.19c.06.07.12.6.15.77.96,5.53-.28,10.7-2.92,15.58l-2.8,5.17c-2.1,3.88-2.54,8.31-1.77,12.7l2.04,11.48-.12.73c-.32,1.97,2.86-.12,3.04-6.25l.29-9.93c.09-3.01.72-6.83,2.78-9.06l8.6-9.28c3.27-3.53,4.91-7.13,4.32-12.2,1.06.26,1.97.57,2.11,1.08.55,2.03-2.52,9.94-4.21,11.75l-7,7.52c-3.47,5.38-4.79,11.55-4.22,18.01l.29,1.2c.04.18.2.22.31.09l.85-1.05.59-.64,7.67-5.81c.12-.09.54-.63.6-.71l.42-.62c1.59-2.34,3.27-4.35,5.28-6.29l.71.1c.14.02.33.46.52.83-2.11,4.53-4.91,8.49-9.24,11.13-2.07,1.75-4.62,3.61-6.04,5.9-2.59,4.17-5.39,7.33-9.25,10.38-8.09,6.39-8.68,11.25-8.56,21.96.05,5.16-.31,9.89-1.08,15.02-.52,3.5-.39,7.64,1.56,8.63,2.75,1.39,5.02-3.75,6.57-7.71l4.65-11.84c1.68-4.29,3.47-8.45,6.65-11.84,4.69-4.99,11.94-5.79,17.92-10.61l4.54-3.66c.12-.09,1.07.24,1.05.38l-.13,1.04c-.22,1.69-2.37,3.7-4.09,4.55l-6.69,3.31c-6.59,3.25-17.08,7.62-14.24,15.04l3.66-2.98c9.9-5.16,20.5-3.62,30.65-7.81,2.73-1.13,4.75-3.13,5.79-5.78.75.18,2.17.61,2.7,1.13.59.59.85,2.38.75,3.3-11.9,5.61-27.8,7.03-38.12,11.91-2.72,1.28-4.98,3.79-6.82,6.15-6.08,7.8-13.95,21.42-12.82,30.77l1.34,11.07c6.25-6.3,13-9.43,21.2-10.06,6.03-.46,11.8-2.06,17.34-4.09,12.97-4.76,12.35-14.33,20.04-18.55,4.25-2.33,8.44-5.42,11-9.47.87-1.37.41-3.8,2.11-4.69.49-.26,2.09.09,2.3.63-.4,6.96-8.65,12.17-14.69,16.24-2.9,1.95-4.68,5.42-6.81,8.09l-3.17,3.97c-.62.78-.93,3.25.11,3.53l5.82,1.55,30.98,3.25c6.05.64,12.01.28,17.99-.46l11-1.35c1.7-.21,3.46,1.57,3.46,3.26l-7.8-.53-10.9,2.09c-1.04.1-.63.58.29,1.02l10.77,4.69c3.66,1.59,6.1,5.62,5.44,9.49-3.36.47-2.17-4.88-5.46-6.96-9.46-5.96-20-8.47-31.21-9.27l-23.92-1.71c-13.85-.99-40.49,1.56-50.51,9.83-8.66,7.14-8.39,22.47-8.44,33.41l-.08,16.52c9.52,1.72,9.53,10.63,9.54,19.51l.02,15.47c.01,9.11.57,14.58-8.03,20.45,4,2.57,6.6,5.84,6.23,10.09l-.88,10c-.43,4.89-.12,9.41.63,14.23l2.06,13.24c1.31,8.44-7.63,14.18-7.52,14.25l1.03.7c2.67,1.81,4.75,4.96,4.46,8.33l-.83,9.69c-.37,4.35-.3,8.4.39,12.71l2.2,13.78c.85,5.34-1.9,10-6.55,13.02,3.62,2.03,5.93,5.19,5.65,9.04l-.67,8.98c-.33,4.47-.12,8.54.63,12.93l2.2,12.73c.78,4.53-1.77,9.03-5.46,11.51-1.57,1.05,2.32,8.47,7.49,10.25,8.76,3.02,15.6-10.67,27.37-14.35,8.58-2.68,17.64-3.83,26.59-2.61,14.55,1.99,27.13,13.76,23.44,29.2-1.86,7.79-6.81,13.52-14.28,16.75-9.93,4.3-21.46,5.38-31.98,2.17-12.21-3.73-24.29-23.18-36.71-12.47-2.65,2.28-4.55,5.29-5.4,8.99,10.08,3.4,9.33,12.26,7.57,22.36-.89,5.1-.58,9.9.16,15.02l2.23,15.52c.94,6.54-2.45,12.56-8.23,15.97,6.85,3.96,6.25,12.25,4.8,19.92-1.24,6.61-.94,12.74.41,19.29,2.33,11.35,3.77,21.92-5.69,28.51,2.52,2.85,3.94,6.19,4.44,9.85,1.06,7.79,1.22,15.53.99,23.48-.2,6.95-3.16,13.91-10.01,16.19l-1.32,21.25c-.21,3.39.71,6.62,3.35,8.6s4.33,4.76,5.56,7.93c3.27,8.45,15.87,6.84,25.05.56,3.96-2.71,3.32-6.62,5.3-6.36.61.08,1.87.6,2.44,1.07,1.79,1.48,2.32,4.8,1.02,5.56l-.59.35c-3.32.59-5.86,1.98-8.83,3.68-3.84,2.19-10.89,4.17-8.76,4.2l1.41.02,8.49.05,8.12,1.52c.29,3.17-1.61,7.17-2.85,6.92-1.85-.37-2.25-4.67-6.84-5.03l-12.11-.97-6.35-1.56c-.36-.09-1.27.09-1.49.35s-.35,1.4-.23,1.76l1.55,4.49c2.84,8.21,7.85,15.28,15.98,18.65,17.23,7.16,40.81.89,47.24-16.22l2.45-6.53c.3-.8,2.21-.86,2.89-.58.76.32,1.98,2.08,1.37,2.72-3.4,3.55-4.74,7.76-7.52,11.52l-3.78,5.11.83.87,4.76-3.16c6.76-4.49,13.25-9.6,20.91-12.45l10.2-3.79c.71-.26,2.49-.13,3.07.27s.76,2,.53,2.68l-.32.98c-.45,1.37-2.01,3.87-3.8,3.15-2.25-.91-4.11-1.61-6.43-.75l-.8.3-8.74,4.18-.68.42-.6.37-.61.38-.66.41c-.17.1-.95.69-.76.72l1.31.18c2.74.38,6.4.61,9.34,1.44l4.27,1.2c.54.15.95,2.02.57,2.44-1.29,1.38-3.31,1.81-4.1.89-3.68-4.27-11.25-3.9-16.13-1.42l-13.9,7.06c-7.42,3.77-15.37,5.49-23.74,5.2-.7-.02-1.95.35-2.06.87s.21,1.93.61,2.32c5.15,5.02,16.58,6.09,24.45,6.02,4.6-.04,8.85-3.73,9.05-.08.06,1.18-.1,2.81-.75,3.45s-2.38.84-3.47.72l-10.5-1.09c-5.2-.54-10.29-1.58-15.25-3.1-7.48-2.29-6.97-8.09-14.22-10.81l-7.38-2.77c-.43-.16-1.35-.19-1.9-.09-.37,6.58,1.32,12.73,5.26,17.84l8.08,8.48,3.6,3.9c3.35,3.63,6.51,2.82,5.3,5.94-.34.88-1.81,1.96-2.98,1.92-.91-.03-1.87-1.61-2.41-2.61l-.38-.7-.45-.83-8.45-9.24-3.87-3.83-.51-.51c-.12-.12-.51-.9-.54-.73l-.29,1.52c.29,4.27-.58,7.67-3.09,10.98-.15.72-.98,1.99-1.61,1.97s-1.83-.72-2.24-1.19l-.56-.63-.43-.63c-.22-.33-.19-1.6.17-1.82l2.8-1.77c1.52-.96,2.56-3.82,2.04-5.63l-.05-.06ZM173.07,434.3c5.67.46,10.16-5.02,10.38-9.99.14-3.15-1.89-5.32-3.93-6.72-1.9-1.31-5.72-2.53-7.52-.68l-5.73,5.88c-1.27,4.54,1.34,11.07,6.81,11.52h-.01Z"/>
</svg>